<svg width="67" height="59" viewBox="0 0 67 59" fill="none" xmlns="http://www.w3.org/2000/svg">
<path d="M57.6377 15.4788C62.4908 22.3923 64.7017 28.1274 64.8994 32.7825C66.1721 33.7044 67 35.2021 67 36.8938C67 39.696 64.7289 41.9678 61.9268 41.968C61.8828 41.968 61.8386 41.9652 61.7949 41.9641C58.868 45.2717 54.0955 47.3216 48.3877 48.2659C40.9066 49.5034 31.7971 48.8506 23.0674 46.637C23.0644 46.6362 23.0616 46.6348 23.0586 46.634C22.4874 47.1616 21.7266 47.4875 20.8877 47.4875C19.3957 47.4875 18.1421 46.4676 17.7852 45.0872C11.0243 42.8278 4.75731 39.6211 0 35.6272L0.0947266 35.4788C6.02539 38.2376 12.3665 40.4451 18.6426 41.9973C19.2208 41.4291 20.013 41.0784 20.8877 41.0784C22.2557 41.0784 23.423 41.9353 23.8828 43.1418C32.6471 44.8041 41.0169 45.0981 47.6543 43.717C51.6621 42.8831 55.0291 41.4394 57.4727 39.3274C57.077 38.6049 56.8525 37.7756 56.8525 36.8938C56.8526 34.1896 58.9675 31.9799 61.6338 31.8284C62.2818 27.6041 61.0961 22.2305 57.4863 15.5715L57.6377 15.4788Z" fill="url(#paint0_linear_327_530)"/>
<path d="M10.9177 14.6384C17.581 -1.6636 28.1497 -3.24744 37.0066 4.48024C37.5086 4.31394 38.0454 4.22243 38.6033 4.22243C41.4054 4.22261 43.6773 6.49454 43.6775 9.29665C43.6775 10.1605 43.4596 10.9733 43.0789 11.6853C45.8515 15.9866 48.2245 21.3265 49.9343 27.4529C51.0712 27.9452 51.8668 29.0766 51.8669 30.3943C51.8669 31.1674 51.5933 31.8769 51.1375 32.4304C52.727 40.143 53.2943 48.8617 52.4011 58.1687C51.0617 48.5809 49.3168 40.2911 47.2732 33.283C46.199 32.7654 45.4578 31.6665 45.4578 30.3943C45.4578 29.8214 45.6094 29.2845 45.8728 28.8191C43.8825 22.9174 41.6605 18.0888 39.2781 14.324C39.0572 14.3534 38.8322 14.3709 38.6033 14.3709C35.8009 14.3709 33.5291 12.099 33.5291 9.29665C33.5291 8.74678 33.6163 8.21731 33.7781 7.72146C26.3752 1.3842 18.1414 3.77857 10.9177 14.6384Z" fill="#FFC74A"/>
<defs>
<linearGradient id="paint0_linear_327_530" x1="33.5" y1="15.4788" x2="33.5" y2="48.8854" gradientUnits="userSpaceOnUse">
<stop stop-color="#FF8C00"/>
<stop offset="1" stop-color="#FFA40E"/>
</linearGradient>
</defs>
</svg>
